<svg width="12" height="12" viewBox="0 0 12 12" fill="none" xmlns="http://www.w3.org/2000/svg">
<path d="M6 5C6.27614 5 6.5 5.22386 6.5 5.5V8.5C6.5 8.77614 6.27614 9 6 9C5.72386 9 5.5 8.77614 5.5 8.5V5.5C5.5 5.22386 5.72386 5 6 5ZM6.00001 4.24907C6.41369 4.24907 6.74905 3.91371 6.74905 3.50003C6.74905 3.08635 6.41369 2.751 6.00001 2.751C5.58633 2.751 5.25098 3.08635 5.25098 3.50003C5.25098 3.91371 5.58633 4.24907 6.00001 4.24907ZM0 6C0 2.68629 2.68629 0 6 0C9.31371 0 12 2.68629 12 6C12 9.31371 9.31371 12 6 12C2.68629 12 0 9.31371 0 6ZM6 1C3.23858 1 1 3.23858 1 6C1 8.76142 3.23858 11 6 11C8.76142 11 11 8.76142 11 6C11 3.23858 8.76142 1 6 1Z" fill="#212121"/>
</svg>
