<svg width="4" height="11" viewBox="0 0 4 11" fill="none" xmlns="http://www.w3.org/2000/svg">
<path d="M0.998047 5V0.998047C0.998047 0.861328 1.02344 0.732422 1.07422 0.611328C1.12891 0.490234 1.20117 0.384766 1.29102 0.294922C1.38477 0.205078 1.49219 0.134766 1.61328 0.0839844C1.73438 0.0292969 1.86328 0.00195312 2 0.00195312C2.13672 0.00195312 2.26562 0.0292969 2.38672 0.0839844C2.50781 0.134766 2.61328 0.205078 2.70312 0.294922C2.79688 0.384766 2.86914 0.490234 2.91992 0.611328C2.97461 0.732422 3.00195 0.861328 3.00195 0.998047V5C3.00195 5.13672 2.97461 5.26562 2.91992 5.38672C2.86914 5.50781 2.79688 5.61523 2.70312 5.70898C2.61328 5.79883 2.50781 5.87109 2.38672 5.92578C2.26562 5.97656 2.13672 6.00195 2 6.00195C1.86328 6.00195 1.73438 5.97656 1.61328 5.92578C1.49219 5.87109 1.38477 5.79883 1.29102 5.70898C1.20117 5.61523 1.12891 5.50781 1.07422 5.38672C1.02344 5.26562 0.998047 5.13672 0.998047 5ZM0.751953 9.00195C0.751953 8.83008 0.785156 8.66797 0.851562 8.51562C0.917969 8.36328 1.00781 8.23047 1.12109 8.11719C1.23438 8.00391 1.36523 7.91406 1.51367 7.84766C1.66602 7.78125 1.82812 7.74805 2 7.74805C2.17188 7.74805 2.33203 7.78125 2.48047 7.84766C2.63281 7.91406 2.76562 8.00391 2.87891 8.11719C2.99219 8.23047 3.08203 8.36328 3.14844 8.51562C3.21484 8.66797 3.24805 8.83008 3.24805 9.00195C3.24805 9.17383 3.21484 9.33594 3.14844 9.48828C3.08203 9.63672 2.99219 9.76758 2.87891 9.88086C2.76562 9.99414 2.63281 10.084 2.48047 10.1504C2.32812 10.2168 2.16797 10.25 2 10.25C1.82812 10.25 1.66602 10.2168 1.51367 10.1504C1.36523 10.084 1.23438 9.99414 1.12109 9.88086C1.00781 9.76758 0.917969 9.63672 0.851562 9.48828C0.785156 9.33594 0.751953 9.17383 0.751953 9.00195Z" fill="#000"/>
</svg>
