<svg width="9" height="10" viewBox="0 0 9 10" fill="none" xmlns="http://www.w3.org/2000/svg">
<path d="M4.5 5.70898L1.35352 8.85547C1.25586 8.95312 1.13867 9.00195 1.00195 9.00195C0.861328 9.00195 0.742188 8.95312 0.644531 8.85547C0.546875 8.75781 0.498047 8.63867 0.498047 8.49805C0.498047 8.36133 0.546875 8.24414 0.644531 8.14648L3.79102 5L0.644531 1.85352C0.546875 1.75586 0.498047 1.63672 0.498047 1.49609C0.498047 1.42578 0.511719 1.36133 0.539062 1.30273C0.566406 1.24023 0.601562 1.1875 0.644531 1.14453C0.691406 1.09766 0.744141 1.0625 0.802734 1.03906C0.865234 1.01172 0.931641 0.998047 1.00195 0.998047C1.13867 0.998047 1.25586 1.04688 1.35352 1.14453L4.5 4.29102L7.64648 1.14453C7.74414 1.04688 7.86133 0.998047 7.99805 0.998047C8.13867 0.998047 8.25781 1.04688 8.35547 1.14453C8.45312 1.24219 8.50195 1.36133 8.50195 1.50195C8.50195 1.63867 8.45312 1.75586 8.35547 1.85352L5.20898 5L8.35547 8.14648C8.45312 8.24414 8.50195 8.36328 8.50195 8.50391C8.50195 8.57422 8.48828 8.64062 8.46094 8.70312C8.43359 8.76172 8.39648 8.81445 8.34961 8.86133C8.30664 8.9043 8.25391 8.93945 8.19141 8.9668C8.13281 8.99023 8.06836 9.00195 7.99805 9.00195C7.86133 9.00195 7.74414 8.95312 7.64648 8.85547L4.5 5.70898Z" fill="#000"/>
</svg>
