<?xml version="1.0" encoding="utf-8"?>
<!-- Generator: Adobe Illustrator 25.0.0, SVG Export Plug-In . SVG Version: 6.00 Build 0)  -->
<svg version="1.1" id="Ebene_1" xmlns="http://www.w3.org/2000/svg" xmlns:xlink="http://www.w3.org/1999/xlink" x="0px" y="0px"
	 viewBox="0 0 24 24" style="enable-background:new 0 0 24 24;" xml:space="preserve">
<style type="text/css">
	.st0{fill:#C42D1D;}
</style>
<path class="st0" d="M18.2,20.5l-13,0c-0.4,0-0.7,0.3-0.7,0.8S4.8,22,5.3,22l13,0c0.4,0,0.7-0.3,0.7-0.8S18.7,20.5,18.2,20.5z"/>
<path class="st0" d="M11.1,9.4c0.3,0.2,0.5,0.5,0.8,0.7c0.2,0.2,0.5,0.5,0.7,0.7l0-8.1l0-0.1c0-0.4-0.4-0.6-0.7-0.6l-0.1,0
	c-0.4,0-0.6,0.4-0.6,0.7L11.1,9.4C11,9.3,11.1,9.4,11.1,9.4z"/>
<path class="st0" d="M14.7,15.8c-0.3-0.3-0.5-0.5-0.8-0.8l-1.4,1.4l0-4.2l-0.1-0.1c-0.3-0.2-0.5-0.5-0.8-0.7
	c-0.2-0.2-0.4-0.4-0.7-0.7l0,5.7l-3.7-3.7l-0.1-0.1c-0.3-0.2-0.7-0.2-1,0.1c-0.3,0.3-0.3,0.8,0,1.1l5,5l0.1,0.1
	c0.3,0.2,0.7,0.2,1-0.1l2.7-2.7C14.9,16,14.8,15.9,14.7,15.8z"/>
<rect x="11.7" y="3.5" transform="matrix(0.7071 -0.7071 0.7071 0.7071 -5.3618 12.3209)" class="st0" width="1" height="18.3"/>
<rect x="15.6" y="13" transform="matrix(0.7071 -0.7071 0.7071 0.7071 -4.9362 15.5297)" class="st0" width="1.3" height="1.5"/>
<circle class="st0" cx="16.8" cy="13.2" r="0.8"/>
<circle class="st0" cx="5.7" cy="6.2" r="0.5"/>
<circle class="st0" cx="18.7" cy="19.1" r="0.5"/>
</svg>
