<svg width="24" height="24" viewBox="0 0 24 24" fill="none" xmlns="http://www.w3.org/2000/svg">
<path d="M21.0302 2.96948C22.4276 4.36695 22.4276 6.63268 21.0302 8.03014L9.06186 19.9985C8.78498 20.2753 8.44064 20.4752 8.06288 20.5782L2.94719 21.9734C2.38732 22.1261 1.87359 21.6123 2.02628 21.0525L3.42147 15.9368C3.52449 15.559 3.72432 15.2147 4.0012 14.9378L15.9695 2.96948C17.367 1.57202 19.6327 1.57202 21.0302 2.96948ZM15 6.06039L5.06186 15.9985C4.96956 16.0908 4.90296 16.2055 4.86861 16.3315L3.81877 20.1809L7.6682 19.1311C7.79412 19.0967 7.9089 19.0301 8.0012 18.9378L17.939 8.99939L15 6.06039ZM17.0302 4.03014L16.06 4.99939L18.999 7.93939L19.9695 6.96948C20.7812 6.15781 20.7812 4.84182 19.9695 4.03014C19.1578 3.21847 17.8419 3.21847 17.0302 4.03014Z" fill="#212121"/>
</svg>
