<svg width="21" height="21" viewBox="0 0 21 21" fill="none" xmlns="http://www.w3.org/2000/svg">
<path d="M1.07891 1.09499C1.46148 0.711825 2.08173 0.711825 2.46429 1.09499L10.792 9.43591L19.1197 1.09499C19.5023 0.711825 20.1225 0.711825 20.5051 1.09499C20.8876 1.47816 20.8876 2.0994 20.5051 2.48257L12.1774 10.8235L20.4734 19.1327C20.856 19.5158 20.856 20.1371 20.4734 20.5202C20.0908 20.9034 19.4706 20.9034 19.088 20.5202L10.792 12.2111L2.49597 20.5202C2.11341 20.9034 1.49315 20.9034 1.11059 20.5202C0.728029 20.1371 0.728029 19.5158 1.11059 19.1327L9.40661 10.8235L1.07891 2.48257C0.696352 2.0994 0.696352 1.47816 1.07891 1.09499Z" fill="#212121"/>
</svg>
