<svg width="24" height="24" viewBox="0 0 24 24" fill="none" xmlns="http://www.w3.org/2000/svg">
<path d="M17.7453 10.751C18.3361 11.3418 18.8476 12.0584 19.2373 12.8203C19.4259 13.1891 19.2799 13.6409 18.9111 13.8295C18.5423 14.0182 18.0904 13.8721 17.9018 13.5033C17.5815 12.877 17.1612 12.2882 16.6847 11.8116C14.122 9.24898 9.96715 9.24898 7.40449 11.8116C6.90667 12.3095 6.50226 12.8692 6.1909 13.4848C6.00394 13.8544 5.55275 14.0025 5.18313 13.8155C4.81351 13.6286 4.66543 13.1774 4.85239 12.8077C5.23519 12.0509 5.73323 11.3616 6.34383 10.751C9.49227 7.60254 14.5969 7.60254 17.7453 10.751ZM15.6435 13.8198C16.0911 14.2674 16.4593 14.8171 16.7156 15.402C16.8818 15.7814 16.7091 16.2237 16.3297 16.3899C15.9503 16.5562 15.508 16.3834 15.3417 16.004C15.1586 15.5862 14.895 15.1927 14.5828 14.8805C13.1801 13.4777 10.9058 13.4777 9.50306 14.8805C9.19255 15.191 8.94044 15.5692 8.75586 15.991C8.58982 16.3705 8.14759 16.5435 7.76811 16.3775C7.38863 16.2114 7.21561 15.7692 7.38166 15.3897C7.63911 14.8013 7.99549 14.2667 8.4424 13.8198C10.4309 11.8313 13.655 11.8313 15.6435 13.8198ZM13.061 16.4395C13.6469 17.0253 13.6469 17.9752 13.061 18.5611C12.4752 19.1469 11.5253 19.1469 10.9395 18.5611C10.3536 17.9752 10.3536 17.0253 10.9395 16.4395C11.5253 15.8536 12.4752 15.8536 13.061 16.4395Z" fill="#FCE100"/>
</svg>
