<svg width="24" height="24" viewBox="0 0 24 24" fill="none" xmlns="http://www.w3.org/2000/svg">
<path d="M17.7454 10.7506C18.3362 11.3414 18.8477 12.058 19.2374 12.8199C19.426 13.1886 19.2799 13.6405 18.9112 13.8291C18.5424 14.0177 18.0905 13.8717 17.9019 13.5029C17.5815 12.8766 17.1613 12.2878 16.6848 11.8112C14.1221 9.24857 9.96723 9.24857 7.40457 11.8112C6.90676 12.309 6.50235 12.8688 6.19099 13.4844C6.00403 13.854 5.55283 14.0021 5.18321 13.8151C4.81359 13.6281 4.66551 13.1769 4.85247 12.8073C5.23528 12.0505 5.73332 11.3612 6.34391 10.7506C9.49236 7.60212 14.597 7.60212 17.7454 10.7506ZM15.6436 13.8194C16.0912 14.267 16.4594 14.8167 16.7157 15.4016C16.8819 15.781 16.7091 16.2233 16.3298 16.3895C15.9504 16.5558 15.508 16.383 15.3418 16.0036C15.1587 15.5858 14.8951 15.1922 14.5829 14.8801C13.1802 13.4773 10.9059 13.4773 9.50315 14.8801C9.19263 15.1906 8.94053 15.5688 8.75595 15.9906C8.5899 16.3701 8.14767 16.5431 7.76819 16.3771C7.38872 16.211 7.2157 15.7688 7.38174 15.3893C7.63919 14.8009 7.99557 14.2663 8.44249 13.8194C10.431 11.8309 13.6551 11.8309 15.6436 13.8194ZM20.4486 8.27868C20.9576 8.78773 21.4383 9.3693 21.8567 9.97556C22.092 10.3165 22.0064 10.7836 21.6655 11.0188C21.3246 11.2541 20.8575 11.1685 20.6222 10.8276C20.2542 10.2944 19.8313 9.78273 19.3879 9.33934C15.3079 5.25928 8.6928 5.25928 4.61274 9.33934C4.19087 9.76121 3.77245 10.2728 3.39071 10.8231C3.15461 11.1634 2.68731 11.2479 2.34698 11.0118C2.00664 10.7757 1.92215 10.3084 2.15825 9.9681C2.58841 9.34803 3.06282 8.76794 3.55208 8.27868C8.21792 3.61284 15.7827 3.61284 20.4486 8.27868ZM13.0611 16.4391C13.647 17.0249 13.647 17.9748 13.0611 18.5607C12.4753 19.1465 11.5254 19.1465 10.9395 18.5607C10.3537 17.9748 10.3537 17.0249 10.9395 16.4391C11.5254 15.8532 12.4753 15.8532 13.0611 16.4391Z" fill="#f0f0f0"/>
</svg>
