<?xml version="1.0" standalone="no"?>
<!DOCTYPE svg PUBLIC "-//W3C//DTD SVG 20010904//EN"
 "http://www.w3.org/TR/2001/REC-SVG-20010904/DTD/svg10.dtd">
<svg version="1.0" xmlns="http://www.w3.org/2000/svg"
 width="96.000000pt" height="96.000000pt" viewBox="0 0 96.000000 96.000000"
 preserveAspectRatio="xMidYMid meet">

<g transform="translate(0.000000,96.000000) scale(0.100000,-0.100000)"
fill="#000000" stroke="none">
<path d="M385 826 c-107 -34 -186 -102 -232 -201 -24 -51 -28 -73 -28 -145 0
-72 4 -94 28 -146 36 -77 104 -145 182 -181 51 -24 73 -28 145 -28 72 0 94 4
145 28 78 36 146 104 182 181 24 52 28 74 28 146 0 72 -4 94 -28 145 -30 65
-81 124 -138 160 -78 50 -199 68 -284 41z m229 -80 c105 -51 161 -144 161
-266 0 -85 -21 -142 -74 -203 -82 -92 -237 -121 -353 -64 -160 79 -215 278
-118 430 80 126 246 170 384 103z"/>
<path d="M435 651 c-30 -13 -63 -52 -70 -83 -7 -26 -5 -28 23 -28 22 0 32 6
37 20 14 45 83 50 106 9 16 -31 3 -65 -31 -79 -35 -14 -50 -37 -50 -74 0 -22
4 -26 30 -26 23 0 30 5 30 19 0 11 8 22 18 25 41 13 67 55 67 107 0 41 -5 53
-31 80 -33 33 -92 46 -129 30z"/>
<path d="M450 330 c0 -27 3 -30 30 -30 27 0 30 3 30 30 0 27 -3 30 -30 30 -27
0 -30 -3 -30 -30z"/>
</g>
</svg>
