<?xml version="1.0" standalone="yes"?>
<svg width="96" height="96">
<path style="fill:#ffffff; stroke:none;" d="M0 0L0 96L96 96L96 0L0 0z"/>
<path style="fill:#000000; stroke:none;" d="M78 79L78 77C48.313 65.3021 48.3422 30.6864 78 19L78 17C70.7835 14.0401 64.8826 12 57 12C16.2815 12 6.42022 72.8412 47 83.2392C57.7965 86.0057 68.1005 83.0603 78 79z"/>
<path style="fill:#ffffff; stroke:none;" d="M61 77C57.9383 72.6012 54.145 68.792 51.6335 64C42.5563 46.6808 51.1838 33.1032 61 19C54.2956 19 48.0095 19.097 42 22.5324C25.3385 32.0571 23.0646 56.9723 37.0401 69.8148C43.9855 76.1971 52.0307 77 61 77z"/>
</svg>
