<?xml version="1.0" standalone="no"?>
<!DOCTYPE svg PUBLIC "-//W3C//DTD SVG 20010904//EN"
 "http://www.w3.org/TR/2001/REC-SVG-20010904/DTD/svg10.dtd">
<svg version="1.0" xmlns="http://www.w3.org/2000/svg"
 width="96.000000pt" height="96.000000pt" viewBox="0 0 96.000000 96.000000"
 preserveAspectRatio="xMidYMid meet">

<g transform="translate(0.000000,96.000000) scale(0.100000,-0.100000)"
fill="#000000" stroke="none">
<path d="M357 890 c-109 -28 -211 -113 -261 -220 -28 -58 -31 -75 -31 -160 0
-88 3 -101 33 -162 42 -85 105 -148 190 -190 61 -30 74 -33 162 -33 88 0 101
3 162 33 85 42 148 105 190 190 30 61 33 74 33 162 0 88 -3 101 -33 162 -67
136 -186 217 -330 224 -42 2 -94 -1 -115 -6z m225 -77 c179 -80 250 -302 151
-472 l-26 -44 -18 36 c-22 41 -82 104 -110 112 -24 8 -24 17 1 57 55 90 -22
218 -131 218 -46 0 -108 -39 -130 -82 -24 -48 -24 -95 1 -136 25 -40 25 -49 1
-57 -28 -8 -88 -71 -110 -112 l-18 -36 -26 44 c-86 149 -52 322 85 432 85 68
227 85 330 40z m-71 -182 c20 -20 29 -39 29 -61 0 -43 -47 -90 -90 -90 -43 0
-90 47 -90 90 0 22 9 41 29 61 20 20 39 29 61 29 22 0 41 -9 61 -29z m29 -233
c51 -26 110 -98 110 -133 0 -19 -12 -29 -57 -52 -50 -24 -70 -28 -143 -28 -73
0 -93 4 -142 28 -70 34 -74 54 -25 119 40 53 106 88 167 88 28 0 63 -9 90 -22z"/>
</g>
</svg>
