<?xml version="1.0" standalone="no"?>
<!DOCTYPE svg PUBLIC "-//W3C//DTD SVG 20010904//EN"
 "http://www.w3.org/TR/2001/REC-SVG-20010904/DTD/svg10.dtd">
<svg version="1.0" xmlns="http://www.w3.org/2000/svg"
 width="96.000000pt" height="96.000000pt" viewBox="0 0 96.000000 96.000000"
 preserveAspectRatio="xMidYMid meet">

<g transform="translate(0.000000,96.000000) scale(0.100000,-0.100000)"
fill="#000000" stroke="none">
<path d="M385 826 c-107 -34 -186 -102 -232 -201 -24 -51 -28 -73 -28 -145 0
-72 4 -94 28 -146 36 -77 104 -145 182 -181 51 -24 73 -28 145 -28 72 0 94 4
145 28 78 36 146 104 182 181 24 52 28 74 28 146 0 72 -4 94 -28 145 -30 65
-81 124 -138 160 -78 50 -199 68 -284 41z m229 -80 c105 -51 161 -144 161
-266 0 -85 -21 -142 -74 -203 -82 -92 -237 -121 -353 -64 -160 79 -215 278
-118 430 80 126 246 170 384 103z"/>
<path d="M360 480 c0 -110 2 -200 5 -200 12 0 345 193 345 200 0 7 -333 200
-345 200 -3 0 -5 -90 -5 -200z m215 13 c23 -15 28 -11 -87 -76 l-68 -39 0 102
0 102 68 -39 c37 -21 76 -44 87 -50z"/>
</g>
</svg>
