<?xml version="1.0" standalone="no"?>
<!DOCTYPE svg PUBLIC "-//W3C//DTD SVG 20010904//EN"
 "http://www.w3.org/TR/2001/REC-SVG-20010904/DTD/svg10.dtd">
<svg version="1.0" xmlns="http://www.w3.org/2000/svg"
 width="30.000000pt" height="30.000000pt" viewBox="0 0 30.000000 30.000000"
 preserveAspectRatio="xMidYMid meet">

<g transform="translate(0.000000,30.000000) scale(0.100000,-0.100000)"
fill="#000000" stroke="none">
<path d="M60 270 c0 -27 -3 -30 -30 -30 l-30 0 0 -120 0 -120 120 0 120 0 0
30 c0 27 3 30 30 30 l30 0 0 120 0 120 -120 0 -120 0 0 -30z m210 -90 c0 -73
-3 -90 -15 -90 -12 0 -15 15 -15 75 l0 75 -75 0 c-60 0 -75 3 -75 15 0 12 17
15 90 15 l90 0 0 -90z m-60 -60 l0 -90 -90 0 -90 0 0 90 0 90 90 0 90 0 0 -90z"/>
</g>
</svg>
