<?xml version="1.0" encoding="utf-8"?>
<!-- Generator: Adobe Illustrator 25.0.0, SVG Export Plug-In . SVG Version: 6.00 Build 0)  -->
<svg version="1.1" id="Ebene_1" xmlns="http://www.w3.org/2000/svg" xmlns:xlink="http://www.w3.org/1999/xlink" x="0px" y="0px"
	 viewBox="0 0 24 24" style="enable-background:new 0 0 24 24;" xml:space="preserve">
<style type="text/css">
	.st0{fill:#F0F0F0;}
	.st1{fill:#62AADE;}
</style>
<path class="st0" d="M10.7,20.1l-0.1-1c-0.1-0.9-0.6-1.7-1.4-2.2c-0.8-0.5-1.8-0.5-2.6-0.1l-0.9,0.4c-0.6-0.7-1-1.5-1.3-2.3l0.8-0.6
	c0.7-0.5,1.2-1.4,1.2-2.3c0-0.9-0.4-1.8-1.2-2.3L4.3,9.1c0.3-0.8,0.8-1.6,1.3-2.3l0.9,0.4C7.4,7.5,8.3,7.5,9.1,7
	c0.8-0.5,1.3-1.3,1.4-2.2l0.1-1c0.4-0.1,0.9-0.1,1.4-0.1c0.4,0,0.9,0,1.3,0.1l0.1,1c0.2,1.5,1.4,2.6,2.9,2.6c0.4,0,0.8-0.1,1.2-0.2
	l0.9-0.4c0.6,0.7,1,1.5,1.3,2.3l-0.8,0.6c-0.7,0.5-1.2,1.4-1.2,2.3c0,0.9,0.4,1.8,1.2,2.3l0.8,0.6c0,0.1-0.1,0.2-0.1,0.2
	c0.5,0.3,0.9,0.6,1.2,0.9c0.2-0.4,0.4-0.8,0.5-1.2c0.1-0.3,0-0.6-0.3-0.8l-1.2-0.9c-0.4-0.3-0.6-0.7-0.6-1.1c0-0.4,0.2-0.9,0.6-1.1
	l1.2-0.9c0.3-0.2,0.4-0.5,0.3-0.8c-0.4-1.4-1.2-2.7-2.2-3.8c-0.2-0.2-0.6-0.3-0.8-0.2l-1.4,0.6c-0.2,0.1-0.4,0.1-0.6,0.1
	c-0.7,0-1.3-0.5-1.4-1.2l-0.2-1.5c0-0.3-0.3-0.6-0.6-0.6c-0.7-0.2-1.4-0.2-2.2-0.3c-0.8,0-1.5,0.1-2.2,0.3C9.5,2.6,9.3,2.8,9.2,3.2
	L9.1,4.7c0,0.4-0.3,0.8-0.7,1C8,5.9,7.5,6,7.1,5.8L5.7,5.2C5.4,5.1,5.1,5.1,4.9,5.4c-1,1.1-1.8,2.4-2.2,3.8c-0.1,0.3,0,0.6,0.3,0.8
	l1.2,0.9c0.4,0.3,0.6,0.7,0.6,1.1c0,0.4-0.2,0.9-0.6,1.1L2.9,14c-0.3,0.2-0.4,0.5-0.3,0.8c0.4,1.4,1.2,2.7,2.2,3.8
	c0.2,0.2,0.6,0.3,0.8,0.2l1.4-0.6C7.5,18,8,18.1,8.4,18.3c0.4,0.2,0.6,0.6,0.7,1l0.2,1.5c0,0.3,0.3,0.6,0.6,0.6
	c0.6,0.2,1.3,0.2,2,0.2c-0.1-0.5-0.2-1-0.2-1.5C11.2,20.2,10.9,20.2,10.7,20.1z"/>
<path class="st0" d="M12,8.2c-2.1,0-3.8,1.7-3.8,3.8c0,2.1,1.7,3.8,3.8,3.8c2.1,0,3.8-1.7,3.8-3.8C15.7,9.9,14.1,8.2,12,8.2z
	 M12,14.2c-1.2,0-2.2-1-2.2-2.2c0-1.2,1-2.3,2.2-2.3s2.2,1,2.2,2.3C14.2,13.2,13.2,14.2,12,14.2z"/>
<circle class="st1" cx="17" cy="20" r="4"/>
</svg>
