<svg width="4" height="11" viewBox="0 0 4 11" fill="none" xmlns="http://www.w3.org/2000/svg">
<path d="M0.751953 1.99805C0.751953 1.83008 0.785156 1.66992 0.851562 1.51758C0.917969 1.36523 1.00781 1.23242 1.12109 1.11914C1.23438 1.00586 1.36523 0.916016 1.51367 0.849609C1.66602 0.783203 1.82812 0.75 2 0.75C2.16797 0.75 2.32812 0.783203 2.48047 0.849609C2.63281 0.916016 2.76562 1.00586 2.87891 1.11914C2.99219 1.23242 3.08203 1.36523 3.14844 1.51758C3.21484 1.66992 3.24805 1.83008 3.24805 1.99805C3.24805 2.16992 3.21484 2.33203 3.14844 2.48438C3.08203 2.63672 2.99219 2.76953 2.87891 2.88281C2.76562 2.99609 2.63281 3.08594 2.48047 3.15234C2.33203 3.21875 2.17188 3.25195 2 3.25195C1.82812 3.25195 1.66602 3.21875 1.51367 3.15234C1.36523 3.08594 1.23438 2.99609 1.12109 2.88281C1.00781 2.76953 0.917969 2.63672 0.851562 2.48438C0.785156 2.33203 0.751953 2.16992 0.751953 1.99805ZM0.998047 10.002V6C0.998047 5.86328 1.02344 5.73438 1.07422 5.61328C1.12891 5.49219 1.20117 5.38672 1.29102 5.29688C1.38477 5.20312 1.49219 5.13086 1.61328 5.08008C1.73438 5.02539 1.86328 4.99805 2 4.99805C2.13672 4.99805 2.26562 5.02539 2.38672 5.08008C2.50781 5.13086 2.61328 5.20312 2.70312 5.29688C2.79688 5.38672 2.86914 5.49219 2.91992 5.61328C2.97461 5.73438 3.00195 5.86328 3.00195 6V10.002C3.00195 10.1387 2.97461 10.2676 2.91992 10.3887C2.86914 10.5098 2.79688 10.6152 2.70312 10.7051C2.61328 10.7949 2.50781 10.8672 2.38672 10.9219C2.26562 10.9727 2.13672 10.998 2 10.998C1.86328 10.998 1.73438 10.9727 1.61328 10.9219C1.49219 10.8672 1.38477 10.7949 1.29102 10.7051C1.20117 10.6152 1.12891 10.5098 1.07422 10.3887C1.02344 10.2676 0.998047 10.1387 0.998047 10.002Z" fill="#f0f0f0"/>
</svg>
