<svg width="20" height="20" viewBox="0 0 20 20" fill="none" xmlns="http://www.w3.org/2000/svg">
<path d="M0 2.95455C0 1.3228 1.3228 0 2.95455 0H17.0455C18.6772 0 20 1.3228 20 2.95455V17.0455C20 18.6772 18.6772 20 17.0455 20H2.95455C1.3228 20 0 18.6772 0 17.0455V2.95455ZM2.95455 1.36364C2.07591 1.36364 1.36364 2.07591 1.36364 2.95455V17.0455C1.36364 17.9241 2.07591 18.6364 2.95455 18.6364H17.0455C17.9241 18.6364 18.6364 17.9241 18.6364 17.0455V2.95455C18.6364 2.07591 17.9241 1.36364 17.0455 1.36364H2.95455Z" fill="#f0f0f0"/>
</svg>
