<svg width="20" height="20" viewBox="0 0 20 20" fill="none" xmlns="http://www.w3.org/2000/svg">
<path d="M5.51758 3H4.00932C4.13697 1.32189 5.53905 0 7.24988 0H15.25C17.8733 0 20 2.12665 20 4.75V12.75C20 14.4608 18.6781 15.8629 17 15.9905V14.4823C17.8481 14.361 18.5 13.6316 18.5 12.75V4.75C18.5 2.95507 17.0449 1.5 15.25 1.5H7.24988C6.36825 1.5 5.63889 2.15193 5.51758 3ZM3.25003 4C1.45509 4 0 5.45507 0 7.25V16.75C0 18.5449 1.45509 20 3.25003 20H12.7501C14.5451 20 16.0002 18.5449 16.0002 16.75V7.25C16.0002 5.45507 14.5451 4 12.7501 4H3.25003ZM1.50001 7.25C1.50001 6.2835 2.28352 5.5 3.25003 5.5H12.7501C13.7166 5.5 14.5001 6.2835 14.5001 7.25V16.75C14.5001 17.7165 13.7166 18.5 12.7501 18.5H3.25003C2.28352 18.5 1.50001 17.7165 1.50001 16.75V7.25Z" fill="#f0f0f0"/>
</svg>
