<svg width="24" height="24" viewBox="0 0 24 24" fill="none" xmlns="http://www.w3.org/2000/svg">
<path d="M10.4288 19.924L13.9913 18.4118C14.1246 19.292 13.6534 20.1845 12.7961 20.5484C11.9387 20.9123 10.9694 20.6313 10.4288 19.924ZM15.8615 2.09343C17.9473 3.23298 19.513 4.6961 20.5433 6.48052C21.5735 8.26494 22.0577 10.3525 22.0017 12.7286C21.992 13.1427 21.6484 13.4704 21.2343 13.4607C20.8202 13.4509 20.4924 13.1073 20.5021 12.6932C20.5519 10.5819 20.1307 8.76587 19.2442 7.23052C18.3578 5.69517 16.9957 4.42236 15.1423 3.40978C14.7788 3.21118 14.6452 2.75551 14.8438 2.39201C15.0424 2.02851 15.498 1.89483 15.8615 2.09343ZM6.71168 6.51498C9.57344 5.24085 12.9158 6.44561 14.3112 9.2605L14.4095 9.46992L15.6968 12.3618L17.3951 13.8315C17.4878 13.9118 17.5681 14.0052 17.6613 14.1563L17.7199 14.2706C17.9993 14.9019 17.7141 15.6402 17.0828 15.9196L6.75612 20.4897C6.59679 20.5602 6.42448 20.5967 6.25025 20.5967C5.55989 20.5967 5.00024 20.037 5.00025 19.347L4.99916 17.0041L3.75678 14.2128C2.44328 11.2626 3.76596 7.8265 6.71168 6.51498ZM5.12714 13.6027L6.49901 16.685L6.50007 18.9627L16.1151 14.7075L14.4624 13.2772L13.0456 10.0941L12.9605 9.91277C11.9291 7.8324 9.44871 6.93834 7.32179 7.8853C5.1323 8.86013 4.15081 11.4099 5.12714 13.6027ZM15.624 5.69408C16.591 6.22135 17.3659 6.98871 17.9402 7.98339C18.5145 8.97806 18.7916 10.0329 18.7647 11.134C18.7546 11.5481 18.4107 11.8756 17.9966 11.8655C17.5825 11.8554 17.255 11.5115 17.2651 11.0974C17.2852 10.2758 17.0794 9.49245 16.6412 8.73339C16.2029 7.97432 15.6274 7.40445 14.9059 7.01102C14.5422 6.81272 14.4081 6.35716 14.6064 5.9935C14.8047 5.62984 15.2603 5.49578 15.624 5.69408Z" fill="#212121"/>
</svg>
